<svg width="443" height="448" viewBox="0 0 443 448" fill="none" xmlns="http://www.w3.org/2000/svg">
<circle cx="219.158" cy="398.861" r="39.5" transform="rotate(-105 219.158 398.861)" fill="#E4E1DB"/>
<circle cx="135.446" cy="368.492" r="39.5" transform="rotate(-105 135.446 368.492)" fill="#E4E1DB"/>
<circle cx="70.3775" cy="307.246" r="39.5" transform="rotate(-105 70.3775 307.246)" fill="#E4E1DB"/>
<circle cx="393.961" cy="220.542" r="39.5" transform="rotate(-105 393.961 220.542)" fill="#E4E1DB"/>
<circle cx="363.405" cy="307.411" r="39.5" transform="rotate(-105 363.405 307.411)" fill="#E4E1DB"/>
<circle cx="305.126" cy="375.826" r="39.5" transform="rotate(-105 305.126 375.826)" fill="#E4E1DB"/>
<circle cx="371.703" cy="137.473" r="39.5" transform="rotate(-105 371.703 137.473)" fill="#E4E1DB"/>
<circle cx="302.064" cy="78.4863" r="39.5" transform="rotate(-105 302.064 78.4863)" fill="#E4E1DB"/>
<circle cx="217.386" cy="48.3775" r="39.5" transform="rotate(-105 217.386 48.3775)" fill="#E4E1DB"/>
<circle cx="48.3775" cy="225.144" r="39.5" transform="rotate(-105 48.3775 225.144)" fill="#E4E1DB"/>
<circle cx="74.1053" cy="139.568" r="39.5" transform="rotate(-105 74.1053 139.568)" fill="#E4E1DB"/>
<circle cx="131.419" cy="71.4121" r="39.5" transform="rotate(-105 131.419 71.4121)" fill="#E4E1DB"/>
</svg>
