<svg width="286" height="897" viewBox="0 0 286 897" fill="none" xmlns="http://www.w3.org/2000/svg">
<ellipse cx="80.4959" cy="754.995" rx="38.8364" ry="38.8364" transform="rotate(90 80.4959 754.995)" fill="#E4E1DB"/>
<ellipse cx="246.837" cy="448.07" rx="38.8364" ry="38.8364" transform="rotate(90 246.837 448.07)" fill="#E4E1DB"/>
<ellipse cx="246.837" cy="345.761" rx="38.8364" ry="38.8364" transform="rotate(90 246.837 345.761)" fill="#E4E1DB"/>
<ellipse cx="142.837" cy="857.303" rx="38.8364" ry="38.8364" transform="rotate(90 142.837 857.303)" fill="#E4E1DB"/>
<ellipse cx="211.784" cy="754.838" rx="38.8364" ry="38.4833" transform="rotate(-90 211.784 754.838)" fill="#E4E1DB"/>
<ellipse cx="38.4834" cy="38.8364" rx="38.8364" ry="38.4833" transform="rotate(90 38.4834 38.8364)" fill="#E4E1DB"/>
<ellipse cx="38.8364" cy="141.145" rx="38.8364" ry="38.8364" transform="rotate(90 38.8364 141.145)" fill="#E4E1DB"/>
<ellipse cx="38.4834" cy="243.453" rx="38.8364" ry="38.4833" transform="rotate(90 38.4834 243.453)" fill="#E4E1DB"/>
<ellipse cx="38.8364" cy="345.761" rx="38.8364" ry="38.8364" transform="rotate(90 38.8364 345.761)" fill="#E4E1DB"/>
<ellipse cx="38.8364" cy="448.07" rx="38.8364" ry="38.8364" transform="rotate(90 38.8364 448.07)" fill="#E4E1DB"/>
<ellipse cx="38.8364" cy="550.378" rx="38.8364" ry="38.8364" transform="rotate(90 38.8364 550.378)" fill="#E4E1DB"/>
<ellipse cx="142.484" cy="38.8364" rx="38.8364" ry="38.4833" transform="rotate(90 142.484 38.8364)" fill="#E4E1DB"/>
<ellipse cx="246.484" cy="38.4833" rx="38.4833" ry="38.4833" transform="rotate(90 246.484 38.4833)" fill="#E4E1DB"/>
<ellipse cx="246.837" cy="141.145" rx="38.8364" ry="38.8364" transform="rotate(90 246.837 141.145)" fill="#E4E1DB"/>
<ellipse cx="142.484" cy="243.453" rx="38.8364" ry="38.4833" transform="rotate(-90 142.484 243.453)" fill="#E4E1DB"/>
<ellipse cx="246.837" cy="243.453" rx="38.8364" ry="38.8364" transform="rotate(90 246.837 243.453)" fill="#E4E1DB"/>
<ellipse cx="38.8364" cy="652.687" rx="38.8364" ry="38.8364" transform="rotate(90 38.8364 652.687)" fill="#E4E1DB"/>
<ellipse cx="246.837" cy="652.687" rx="38.8364" ry="38.8364" transform="rotate(90 246.837 652.687)" fill="#E4E1DB"/>
<ellipse cx="142.837" cy="652.687" rx="38.8364" ry="38.8364" transform="rotate(90 142.837 652.687)" fill="#E4E1DB"/>
<ellipse cx="246.837" cy="550.378" rx="38.8364" ry="38.8364" transform="rotate(90 246.837 550.378)" fill="#E4E1DB"/>
</svg>
