<svg width="670" height="938" viewBox="0 0 670 938" fill="none" xmlns="http://www.w3.org/2000/svg">
<circle cx="566.704" cy="562.133" r="68.4487" transform="rotate(90 566.704 562.133)" fill="#E4E1DB"/>
<circle cx="68.4487" cy="294.264" r="68.4487" transform="rotate(90 68.4487 294.264)" fill="#E4E1DB"/>
<circle cx="465.223" cy="689.211" r="68.4487" transform="rotate(-90 465.223 689.211)" fill="#E4E1DB"/>
<circle cx="291.521" cy="68.4487" r="68.4487" transform="rotate(90 291.521 68.4487)" fill="#E4E1DB"/>
<circle cx="451.511" cy="109.589" r="68.4487" transform="rotate(90 451.511 109.589)" fill="#E4E1DB"/>
<circle cx="147.073" cy="147.987" r="68.4487" transform="rotate(90 147.073 147.987)" fill="#E4E1DB"/>
<circle cx="401.227" cy="837.317" r="68.4487" transform="rotate(-90 401.227 837.317)" fill="#E4E1DB"/>
<circle cx="563.047" cy="233.924" r="68.4487" transform="rotate(90 563.047 233.924)" fill="#E4E1DB"/>
<circle cx="240.323" cy="869.315" r="68.4487" transform="rotate(-90 240.323 869.315)" fill="#E4E1DB"/>
<circle cx="601.42" cy="400.495" r="68.4487" transform="rotate(90 601.42 400.495)" fill="#E4E1DB"/>
<circle cx="141.587" cy="742.236" r="68.4487" transform="rotate(90 141.587 742.236)" fill="#E4E1DB"/>
<circle cx="314.377" cy="468.882" r="68.4487" transform="rotate(90 314.377 468.882)" fill="#E4E1DB"/>
</svg>
