<?xml version="1.0" encoding="UTF-8"?>
<svg id="Layer_1" xmlns="http://www.w3.org/2000/svg" xmlns:xlink="http://www.w3.org/1999/xlink" version="1.1" viewBox="0 0 747.7 567.8">
  <!-- Generator: Adobe Illustrator 29.8.3, SVG Export Plug-In . SVG Version: 2.1.1 Build 3)  -->
  <defs>
    <style>
      .st0 {
        fill: none;
      }

      .st1 {
        fill: #897A27;
      }

      .st2 {
        fill: #fff;
      }

      .st3 {
        clip-path: url(#clippath);
      }
    </style>
    <clipPath id="clippath">
      <rect class="st0" y="0" width="747.7" height="567.8"/>
    </clipPath>
  </defs>
  <g class="st3">
    <g>
      <path class="st2" d="M410.7,170.4c34.6,0,49,56.1,49,133.9h-104.4c1.4-71.3,18-133.9,55.4-133.9M586.3,421.7l-3.6-1.4c-26.6,33.8-65.5,47.5-105.8,47.5-72.7,0-118.8-51.8-121.7-148.3h230.4v-4.3c0-84.9-54.7-156.2-162.7-156.2s-199.4,91.4-199.4,210.9,87.1,194.4,190.1,194.4,157.7-55.4,172.8-142.5"/>
      <path class="st1" d="M601.5,494.7c0,43.5,32.3,73.1,73.1,73.1s73.1-29.6,73.1-73.1-32.3-73.8-73.1-73.8-73.1,30.3-73.1,73.8"/>
      <path class="st2" d="M38.2,248.9v272.1c0,21.6-11.5,23.8-38.2,25.9v10.1h224.6v-10.1c-26.6-2.2-38.2-4.3-38.2-25.9V158.9h0L0,202.1"/>
      <path class="st2" d="M40.3,73.8c0,43.5,32.3,73.1,73.1,73.1s73.1-29.6,73.1-73.1S154.3,0,113.4,0,40.3,30.3,40.3,73.8"/>
    </g>
  </g>
</svg>