<?xml version="1.0" encoding="UTF-8"?>
<svg id="Layer_1" data-name="Layer 1" xmlns="http://www.w3.org/2000/svg" xmlns:xlink="http://www.w3.org/1999/xlink" viewBox="0 0 747.69 567.82">
  <defs>
    <style>
      .cls-1 {
        fill: none;
      }

      .cls-2 {
        fill: #1c252e;
      }

      .cls-3 {
        fill: #d0ba37;
      }

      .cls-4 {
        clip-path: url(#clippath);
      }
    </style>
    <clipPath id="clippath">
      <rect class="cls-1" width="747.69" height="567.82"/>
    </clipPath>
  </defs>
  <g class="cls-4">
    <path class="cls-2" d="M410.69,170.41c34.56,0,48.95,56.15,48.95,133.91h-104.39c1.44-71.27,18-133.91,55.43-133.91M586.35,421.67l-3.6-1.44c-26.64,33.84-65.51,47.52-105.83,47.52-72.71,0-118.79-51.83-121.67-148.3h230.38v-4.32c0-84.95-54.71-156.22-162.7-156.22s-199.42,91.43-199.42,210.94,87.11,194.38,190.06,194.38c89.99,0,157.66-55.43,172.78-142.55"/>
    <path class="cls-3" d="M601.46,494.7c0,43.47,32.28,73.11,73.11,73.11s73.11-29.64,73.11-73.11-32.28-73.77-73.11-73.77-73.11,30.3-73.11,73.77"/>
    <path class="cls-2" d="M38.16,248.88v272.13c0,21.6-11.52,23.76-38.16,25.92v10.08h224.62v-10.08c-26.64-2.16-38.16-4.32-38.16-25.92V158.89h.07L0,202.09"/>
    <path class="cls-2" d="M40.31,73.77c0,43.47,32.28,73.11,73.11,73.11s73.11-29.64,73.11-73.11S154.26,0,113.42,0,40.31,30.3,40.31,73.77"/>
  </g>
</svg>