<svg width="694" height="692" viewBox="0 0 694 692" fill="none" xmlns="http://www.w3.org/2000/svg">
<ellipse cx="220.308" cy="69.278" rx="38.8364" ry="38.8364" transform="rotate(90 220.308 69.278)" fill="#E4E1DB"/>
<ellipse cx="126.395" cy="134.947" rx="38.8364" ry="38.8364" transform="rotate(90 126.395 134.947)" fill="#E4E1DB"/>
<ellipse cx="57.1954" cy="228.154" rx="38.8364" ry="38.8364" transform="rotate(90 57.1954 228.154)" fill="#E4E1DB"/>
<ellipse cx="460.741" cy="63.6291" rx="38.8364" ry="38.4833" transform="rotate(90 460.741 63.6291)" fill="#E4E1DB"/>
<ellipse cx="559.95" cy="128.592" rx="38.8364" ry="38.8364" transform="rotate(90 559.95 128.592)" fill="#E4E1DB"/>
<ellipse cx="629.502" cy="227.801" rx="38.4833" ry="38.4833" transform="rotate(90 629.502 227.801)" fill="#E4E1DB"/>
<ellipse cx="342.719" cy="38.8364" rx="38.8364" ry="38.4833" transform="rotate(90 342.719 38.8364)" fill="#E4E1DB"/>
<ellipse cx="38.8364" cy="345.762" rx="38.8364" ry="38.8364" transform="rotate(90 38.8364 345.762)" fill="#E4E1DB"/>
<ellipse cx="655.074" cy="348.9" rx="38.8364" ry="38.8364" transform="rotate(90 655.074 348.9)" fill="#E4E1DB"/>
<ellipse cx="57.1954" cy="462.585" rx="38.8364" ry="38.8364" transform="rotate(90 57.1954 462.585)" fill="#E4E1DB"/>
<ellipse cx="629.149" cy="471.058" rx="38.8364" ry="38.8364" transform="rotate(90 629.149 471.058)" fill="#E4E1DB"/>
<ellipse cx="126.395" cy="564.971" rx="38.8364" ry="38.8364" transform="rotate(90 126.395 564.971)" fill="#E4E1DB"/>
<ellipse cx="559.95" cy="564.971" rx="38.8364" ry="38.8364" transform="rotate(90 559.95 564.971)" fill="#E4E1DB"/>
<ellipse cx="220.308" cy="625.697" rx="38.8364" ry="38.8364" transform="rotate(90 220.308 625.697)" fill="#E4E1DB"/>
<ellipse cx="343.072" cy="652.687" rx="38.8364" ry="38.8364" transform="rotate(90 343.072 652.687)" fill="#E4E1DB"/>
<ellipse cx="460.388" cy="633.465" rx="38.8364" ry="38.8364" transform="rotate(90 460.388 633.465)" fill="#E4E1DB"/>
<ellipse cx="343.07" cy="180.138" rx="38.8364" ry="38.8364" transform="rotate(90 343.07 180.138)" fill="#E4E1DB"/>
<ellipse cx="343.07" cy="282.447" rx="38.8364" ry="38.8364" transform="rotate(90 343.07 282.447)" fill="#E4E1DB"/>
<ellipse cx="239.069" cy="282.447" rx="38.8364" ry="38.8364" transform="rotate(90 239.069 282.447)" fill="#E4E1DB"/>
<ellipse cx="239.069" cy="487.064" rx="38.8364" ry="38.8364" transform="rotate(90 239.069 487.064)" fill="#E4E1DB"/>
<ellipse cx="343.07" cy="487.064" rx="38.8364" ry="38.8364" transform="rotate(90 343.07 487.064)" fill="#E4E1DB"/>
<ellipse cx="447.073" cy="487.064" rx="38.8364" ry="38.8364" transform="rotate(90 447.073 487.064)" fill="#E4E1DB"/>
<ellipse cx="343.07" cy="384.755" rx="38.8364" ry="38.8364" transform="rotate(90 343.07 384.755)" fill="#E4E1DB"/>
</svg>
