<svg width="430" height="754" viewBox="0 0 430 754" fill="none" xmlns="http://www.w3.org/2000/svg">
<circle cx="215.595" cy="390.576" r="39.5" transform="rotate(-105 215.595 390.576)" fill="#D9D9D9"/>
<circle cx="131.876" cy="360.205" r="39.5" transform="rotate(-105 131.876 360.205)" fill="#D9D9D9"/>
<circle cx="66.8135" cy="298.959" r="39.5" transform="rotate(-105 66.8135 298.959)" fill="#D9D9D9"/>
<circle cx="390.392" cy="212.255" r="39.5" transform="rotate(-105 390.392 212.255)" fill="#D9D9D9"/>
<circle cx="359.837" cy="299.126" r="39.5" transform="rotate(-105 359.837 299.126)" fill="#D9D9D9"/>
<circle cx="301.556" cy="367.541" r="39.5" transform="rotate(-105 301.556 367.541)" fill="#D9D9D9"/>
<circle cx="368.134" cy="129.185" r="39.5" transform="rotate(-105 368.134 129.185)" fill="#D9D9D9"/>
<circle cx="298.493" cy="70.2007" r="39.5" transform="rotate(-105 298.493 70.2007)" fill="#D9D9D9"/>
<circle cx="213.821" cy="40.0913" r="39.5" transform="rotate(-105 213.821 40.0913)" fill="#D9D9D9"/>
<circle cx="44.8135" cy="216.857" r="39.5" transform="rotate(-105 44.8135 216.857)" fill="#D9D9D9"/>
<circle cx="70.5401" cy="131.283" r="39.5" transform="rotate(-105 70.5401 131.283)" fill="#D9D9D9"/>
<circle cx="127.853" cy="63.1265" r="39.5" transform="rotate(-105 127.853 63.1265)" fill="#D9D9D9"/>
</svg>
