<svg width="899" height="761" viewBox="0 0 899 761" fill="none" xmlns="http://www.w3.org/2000/svg">
<circle cx="68.2851" cy="275.319" r="68.2852" transform="rotate(90 68.2851 275.319)" fill="#E4E1DB"/>
<circle cx="68.2924" cy="449.521" r="68.2852" transform="rotate(90 68.2924 449.521)" fill="#E4E1DB"/>
<circle cx="68.2958" cy="623.721" r="68.2852" transform="rotate(90 68.2958 623.721)" fill="#E4E1DB"/>
<circle cx="68.2851" cy="112.064" r="68.2852" transform="rotate(90 68.2851 112.064)" fill="#E4E1DB"/>
<circle cx="457.736" cy="343.722" r="68.2852" transform="rotate(90 457.736 343.722)" fill="#E4E1DB"/>
<circle cx="457.743" cy="517.924" r="68.2852" transform="rotate(90 457.743 517.924)" fill="#E4E1DB"/>
<circle cx="457.747" cy="692.125" r="68.2852" transform="rotate(90 457.747 692.125)" fill="#E4E1DB"/>
<circle cx="457.736" cy="180.467" r="68.2852" transform="rotate(90 457.736 180.467)" fill="#E4E1DB"/>
<circle cx="277.151" cy="68.2852" r="68.2852" transform="rotate(90 277.151 68.2852)" fill="#E4E1DB"/>
<circle cx="277.151" cy="611.865" r="68.2852" transform="rotate(90 277.151 611.865)" fill="#E4E1DB"/>
<circle cx="631.025" cy="68.2852" r="68.2852" transform="rotate(90 631.025 68.2852)" fill="#E4E1DB"/>
<circle cx="639.461" cy="611.865" r="68.2852" transform="rotate(90 639.461 611.865)" fill="#E4E1DB"/>
<circle cx="828.932" cy="251.606" r="68.2852" transform="rotate(90 828.932 251.606)" fill="#E4E1DB"/>
<circle cx="828.938" cy="425.807" r="68.2852" transform="rotate(90 828.938 425.807)" fill="#E4E1DB"/>
<circle cx="830.079" cy="600.008" r="68.2852" transform="rotate(90 830.079 600.008)" fill="#E4E1DB"/>
<circle cx="828.932" cy="88.3502" r="68.2852" transform="rotate(90 828.932 88.3502)" fill="#E4E1DB"/>
</svg>
