<?xml version="1.0" encoding="UTF-8"?><svg id="Capa_2" xmlns="http://www.w3.org/2000/svg" viewBox="0 0 283.3 270.64"><defs><style>.cls-1{fill:none;stroke:#000;stroke-linecap:round;stroke-linejoin:round;stroke-width:3px;}</style></defs><g id="Capa_1-2"><path class="cls-1" d="M2.27,53.75c-3.44,147.33,4.14,228.41,33.85,213.68,25.36-12.58,43.88-67.53,43.88-229.8,0,120.31-6.1,209.24,22.78,193.88s34.78-74.12,34.78-126.73c0,39.36,1.79,117.29,28.28,92.45,23.74-22.26,26.81-86.33,24.38-115.5-2.43-29.16-16.34-13.65-18.77,3.36-2.43,17.01,1.76,25.02,13.1,21.78,11.34-3.24,30.78-19.11,40.5-40.98-12.15,28.35-13.38,65.71-10.14,81.1,8.78,41.68,64.25-8.43,66.85-104.59,1.62-59.95-30.03-43.13-39.95-18.05"/><path class="cls-1" d="M44.39,121.9l66.43-35.65"/></g></svg>