<svg width="598" height="799" viewBox="0 0 598 799" fill="none" xmlns="http://www.w3.org/2000/svg">
<ellipse cx="38.4834" cy="244.865" rx="38.8364" ry="38.4833" transform="rotate(90 38.4834 244.865)" fill="#E4E1DB"/>
<ellipse cx="454.839" cy="141.851" rx="38.8364" ry="38.8364" transform="rotate(90 454.839 141.851)" fill="#E4E1DB"/>
<ellipse cx="246.485" cy="38.8364" rx="38.8364" ry="38.4833" transform="rotate(90 246.485 38.8364)" fill="#E4E1DB"/>
<ellipse cx="350.486" cy="38.8364" rx="38.8364" ry="38.4833" transform="rotate(90 350.486 38.8364)" fill="#E4E1DB"/>
<ellipse cx="142.837" cy="141.851" rx="38.8364" ry="38.8364" transform="rotate(90 142.837 141.851)" fill="#E4E1DB"/>
<ellipse cx="38.8364" cy="347.88" rx="38.8364" ry="38.8364" transform="rotate(90 38.8364 347.88)" fill="#E4E1DB"/>
<ellipse cx="558.487" cy="244.865" rx="38.8364" ry="38.4833" transform="rotate(-90 558.487 244.865)" fill="#E4E1DB"/>
<ellipse cx="142.837" cy="347.88" rx="38.8364" ry="38.8364" transform="rotate(90 142.837 347.88)" fill="#E4E1DB"/>
<ellipse cx="246.839" cy="347.88" rx="38.8364" ry="38.8364" transform="rotate(90 246.839 347.88)" fill="#E4E1DB"/>
<ellipse cx="142.837" cy="450.894" rx="38.8364" ry="38.8364" transform="rotate(90 142.837 450.894)" fill="#E4E1DB"/>
<ellipse cx="38.8364" cy="553.909" rx="38.8364" ry="38.8364" transform="rotate(90 38.8364 553.909)" fill="#E4E1DB"/>
<ellipse cx="38.8364" cy="656.923" rx="38.8364" ry="38.8364" transform="rotate(90 38.8364 656.923)" fill="#E4E1DB"/>
<ellipse cx="38.8364" cy="759.938" rx="38.8364" ry="38.8364" transform="rotate(90 38.8364 759.938)" fill="#E4E1DB"/>
<ellipse cx="142.837" cy="759.938" rx="38.8364" ry="38.8364" transform="rotate(90 142.837 759.938)" fill="#E4E1DB"/>
<ellipse cx="246.839" cy="759.938" rx="38.8364" ry="38.8364" transform="rotate(90 246.839 759.938)" fill="#E4E1DB"/>
<ellipse cx="350.839" cy="759.938" rx="38.8364" ry="38.8364" transform="rotate(90 350.839 759.938)" fill="#E4E1DB"/>
<ellipse cx="454.839" cy="759.938" rx="38.8364" ry="38.8364" transform="rotate(90 454.839 759.938)" fill="#E4E1DB"/>
<ellipse cx="558.84" cy="759.938" rx="38.8364" ry="38.8364" transform="rotate(90 558.84 759.938)" fill="#E4E1DB"/>
<ellipse cx="558.84" cy="656.923" rx="38.8364" ry="38.8364" transform="rotate(90 558.84 656.923)" fill="#E4E1DB"/>
<ellipse cx="454.839" cy="553.909" rx="38.8364" ry="38.8364" transform="rotate(90 454.839 553.909)" fill="#E4E1DB"/>
<ellipse cx="454.839" cy="450.894" rx="38.8364" ry="38.8364" transform="rotate(90 454.839 450.894)" fill="#E4E1DB"/>
<ellipse cx="558.487" cy="347.88" rx="38.8364" ry="38.4833" transform="rotate(-90 558.487 347.88)" fill="#E4E1DB"/>
<ellipse cx="558.487" cy="450.894" rx="38.8364" ry="38.4833" transform="rotate(-90 558.487 450.894)" fill="#E4E1DB"/>
<ellipse cx="454.486" cy="38.4833" rx="38.4833" ry="38.4833" transform="rotate(90 454.486 38.4833)" fill="#E4E1DB"/>
<ellipse cx="558.487" cy="141.851" rx="38.8364" ry="38.4833" transform="rotate(-90 558.487 141.851)" fill="#E4E1DB"/>
<ellipse cx="246.485" cy="141.851" rx="38.8364" ry="38.4833" transform="rotate(90 246.485 141.851)" fill="#E4E1DB"/>
</svg>
